<?xml version="1.0" encoding="UTF-8"?>
<svg id="Layer_2" data-name="Layer 2" xmlns="http://www.w3.org/2000/svg" viewBox="0 0 129.86 15.45">
  <defs>
    <style>
      .cls-1 {
        fill: #fff;
        stroke-width: 0px;
      }
    </style>
  </defs>
  <g id="Layer_1-2" data-name="Layer 1">
    <g>
      <g>
        <polygon class="cls-1" points="42.98 15.23 48.72 15.23 48.26 .22 42.09 .22 43.86 5.57 42.98 15.23"/>
        <polygon class="cls-1" points="34.26 .22 34.51 15.23 37.35 15.23 40.13 4.57 38.27 .22 34.26 .22"/>
      </g>
      <polygon class="cls-1" points="0 2.47 5.2 2.47 5.2 15.23 7.82 15.23 7.82 2.47 13.02 2.47 13.02 .21 0 .21 0 2.47"/>
      <path class="cls-1" d="m26.77,9.53c0,2.17-1.55,3.56-3.67,3.56s-3.72-1.39-3.72-3.58V.21h-2.62v9.31c0,3.39,2.71,5.92,6.34,5.92s6.3-2.51,6.3-5.9V.21h-2.62v9.31Z"/>
      <path class="cls-1" d="m60,9.28h5.09c-.41,2.45-2.23,3.81-5.04,3.81-3.01,0-5.27-2.28-5.27-5.46s2.21-5.27,5.5-5.27c1.82,0,3.49.69,4.45,1.95l1.78-1.67c-1.46-1.67-3.7-2.64-6.23-2.64-4.63,0-8.19,3.34-8.19,7.63s3.6,7.82,8.01,7.82,7.8-2.71,7.8-8.08v-.34h-7.89v2.25Z"/>
      <path class="cls-1" d="m74.49,4.01c0-1.09.94-1.72,2.53-1.72,1.28,0,2.21.47,3.13,1.44l1.78-1.67c-1.05-1.2-2.74-2.06-4.84-2.06-2.94,0-5.22,1.54-5.22,4.18,0,5.36,7.57,3.52,7.57,7.04,0,1.2-1.14,1.93-2.9,1.93-1.89,0-3.01-.71-3.9-1.91l-1.78,1.67c1.39,1.67,3.06,2.53,5.59,2.53,3.44,0,5.61-1.67,5.61-4.38,0-5.58-7.57-3.88-7.57-7.06Z"/>
      <polygon class="cls-1" points="84.65 2.47 89.85 2.47 89.85 15.23 92.48 15.23 92.48 2.47 97.68 2.47 97.68 .21 84.65 .21 84.65 2.47"/>
      <path class="cls-1" d="m101.81.21h10.61v2.25h-7.99v4.01h7.33v2.17h-7.33v4.33h8.11v2.25h-10.72V.21Z"/>
      <path class="cls-1" d="m117,.21h1.82l8.42,10.36V.21h2.62v15.02h-1.82l-8.42-10.36v10.36h-2.62V.21Z"/>
    </g>
  </g>
</svg>