<?xml version="1.0" encoding="UTF-8"?>
<svg id="Layer_2" data-name="Layer 2" xmlns="http://www.w3.org/2000/svg" viewBox="0 0 101.24 10.26">
  <defs>
    <style>
      .cls-1 {
        fill: #fff;
        stroke-width: 0px;
      }
    </style>
  </defs>
  <g id="Layer_1-2" data-name="Layer 1">
    <g>
      <path class="cls-1" d="m4.52,6.61c-.22-.16-.46-.29-.73-.4s-.53-.2-.8-.29-.51-.18-.73-.29-.4-.23-.53-.38c-.14-.15-.2-.35-.2-.59,0-.31.12-.55.36-.72.24-.17.57-.26.98-.26.34,0,.64.06.9.19s.5.31.73.57l.7-.67c-.25-.3-.57-.54-.97-.73s-.84-.28-1.34-.28c-.45,0-.86.08-1.22.24-.36.16-.65.38-.86.67-.21.29-.31.64-.31,1.06,0,.38.07.69.2.93.13.24.31.44.53.59.22.15.47.28.73.38.26.1.53.19.79.28s.51.18.73.29.4.25.53.41c.13.17.2.39.2.66,0,.33-.14.59-.41.78-.28.19-.64.28-1.09.28s-.85-.08-1.17-.25c-.31-.16-.59-.41-.83-.73l-.7.67c.33.4.71.7,1.13.91s.93.31,1.53.31c.8,0,1.43-.18,1.9-.55s.7-.87.7-1.51c0-.38-.07-.71-.2-.96-.14-.26-.31-.46-.53-.62Z"/>
      <polygon class="cls-1" points="6.92 3.77 9.5 3.77 9.5 10.15 10.55 10.15 10.55 3.77 13.13 3.77 13.13 2.87 6.92 2.87 6.92 3.77"/>
      <path class="cls-1" d="m20.32,7.44c0,.38-.08.71-.25.99-.17.28-.39.5-.67.65-.28.15-.61.23-.97.23s-.69-.08-.98-.23c-.29-.15-.52-.37-.69-.65-.17-.28-.25-.61-.25-1V2.87h-1.04v4.59c0,.53.13,1.01.39,1.43s.61.76,1.06,1c.45.25.95.37,1.52.37s1.07-.12,1.5-.37c.44-.24.79-.58,1.04-1,.26-.42.38-.9.38-1.43V2.87h-1.04v4.58Z"/>
      <path class="cls-1" d="m29.86,3.91c-.35-.33-.76-.58-1.23-.77-.47-.18-.99-.27-1.54-.27h-2.82v7.29h2.85c.55,0,1.06-.09,1.53-.27s.88-.44,1.22-.77c.34-.33.61-.72.81-1.16.19-.44.29-.93.29-1.44s-.1-1.01-.29-1.45c-.19-.44-.46-.83-.81-1.16Zm-.32,4.02c-.24.41-.57.74-1,.97-.43.23-.92.35-1.48.35h-1.77V3.77h1.77c.56,0,1.05.12,1.47.35s.76.56,1,.97c.24.41.36.88.36,1.41s-.12,1.01-.36,1.43Z"/>
      <rect class="cls-1" x="33.59" y="2.87" width="1.03" height="7.29"/>
      <path class="cls-1" d="m43.81,3.84c-.35-.34-.76-.61-1.23-.8s-.97-.28-1.51-.28-1.05.09-1.51.28c-.47.19-.87.46-1.22.8-.35.34-.62.74-.82,1.19-.2.45-.3.94-.3,1.46s.1,1,.3,1.46c.2.46.47.86.82,1.2s.76.62,1.23.81c.47.19.97.29,1.52.29s1.04-.1,1.5-.29c.47-.19.87-.46,1.22-.8.35-.34.62-.74.82-1.2.2-.46.3-.94.3-1.46s-.1-1.01-.3-1.47c-.2-.46-.47-.85-.82-1.2Zm-.31,4.11c-.24.42-.57.76-.98,1-.42.24-.9.36-1.44.36-.4,0-.77-.07-1.12-.21s-.63-.33-.88-.58c-.25-.25-.44-.55-.57-.89-.14-.35-.2-.72-.2-1.13,0-.55.12-1.03.36-1.45s.56-.75.98-.99c.41-.24.89-.36,1.43-.36.41,0,.78.07,1.12.2.34.14.63.33.88.58s.44.55.58.89c.13.34.2.71.2,1.12,0,.55-.12,1.03-.36,1.45Z"/>
      <path class="cls-1" d="m55.71,9.09c-.35.15-.77.23-1.24.23-.4,0-.77-.07-1.11-.21-.34-.14-.63-.33-.88-.58s-.44-.55-.58-.89c-.14-.34-.2-.72-.2-1.12s.07-.78.2-1.12c.13-.34.33-.64.58-.89s.54-.45.88-.58c.34-.14.7-.2,1.1-.2.45,0,.85.07,1.2.22s.65.35.89.61l.71-.68c-.35-.34-.75-.6-1.21-.8-.45-.2-.99-.29-1.59-.29-.54,0-1.05.1-1.52.29-.47.19-.88.46-1.22.8-.34.34-.61.74-.8,1.19s-.29.94-.29,1.47.09,1,.29,1.46.46.85.81,1.2c.35.34.76.61,1.23.8s.98.29,1.53.29c.59,0,1.13-.1,1.6-.29.47-.2.88-.47,1.24-.81l-.71-.68c-.24.26-.54.46-.89.61Z"/>
      <path class="cls-1" d="m63.84,6.73c.36-.17.64-.41.83-.72.19-.31.29-.67.29-1.08s-.1-.75-.29-1.06c-.19-.31-.47-.55-.83-.73-.36-.18-.78-.27-1.26-.27h-2.8v7.29h1.03v-3.17h.67l2.69,3.17h1.31l-2.75-3.19c.42-.02.79-.09,1.11-.24Zm-3.03-3h1.74c.44,0,.78.12,1.02.35s.36.52.36.87c0,.37-.12.67-.36.88-.24.22-.58.33-1.03.33h-1.73v-2.43Z"/>
      <polygon class="cls-1" points="71.42 .75 70.63 0 69.21 1.69 69.66 2.12 71.42 .75"/>
      <polygon class="cls-1" points="68.78 6.87 72.46 6.87 72.46 6 68.78 6 68.78 3.77 72.77 3.77 72.77 2.87 68.78 2.87 68.45 2.87 67.75 2.87 67.75 10.15 68.45 10.15 68.78 10.15 72.82 10.15 72.82 9.25 68.78 9.25 68.78 6.87"/>
      <path class="cls-1" d="m77.99,2.87l-3.13,7.29h1.11l.69-1.65h3.38l.69,1.65h1.12l-3.11-7.29h-.75Zm-.97,4.78l1.33-3.18,1.33,3.18h-2.66Z"/>
      <polygon class="cls-1" points="83.7 3.77 86.28 3.77 86.28 10.15 87.33 10.15 87.33 3.77 89.91 3.77 89.91 2.87 83.7 2.87 83.7 3.77"/>
      <rect class="cls-1" x="92.34" y="2.87" width="1.03" height="7.29"/>
      <polygon class="cls-1" points="101.24 3.77 101.24 2.87 97.4 2.87 97.07 2.87 96.37 2.87 96.37 10.15 97.4 10.15 97.4 6.95 101.05 6.95 101.05 6.05 97.4 6.05 97.4 3.77 101.24 3.77"/>
    </g>
  </g>
</svg>